<?xml version="1.0" encoding="UTF-8"?>
<svg preserveAspectRatio="xMidYMid slice" width="400px" height="286px" xmlns="http://www.w3.org/2000/svg" id="Layer_2" viewBox="0 0 400 286">
  <defs>
    <style>.cls-1{fill:#00ccbc;}</style>
  </defs>
  <title>Artboard 1</title>
  <path class="cls-1" d="M159,163.29H166l-1.15-5.38V125.86h-6.63v14.62a10.3,10.3,0,0,0-8-3.67c-6.63,0-11.76,5.48-11.76,13.52s5.13,13.52,11.76,13.52a10.34,10.34,0,0,0,8.13-3.82l.7,3.27ZM290.09,144a6.33,6.33,0,0,1,3.74,1.15l3.14-7.08a9,9,0,0,0-4.79-1.31,8.07,8.07,0,0,0-7.08,3.87l-.7-3.27h-6.83l1.1,5.07v20.85h6.63V146.76a5.18,5.18,0,0,1,4.79-2.76h0Zm19.44,12.86a6.31,6.31,0,0,1-6.68-6.53c0-4,2.84-6.53,6.68-6.53s6.68,2.51,6.68,6.53-2.79,6.53-6.68,6.53Zm-164.65-6.53c0-4,2.84-6.53,6.68-6.53s6.68,2.51,6.68,6.53-2.79,6.53-6.68,6.53A6.31,6.31,0,0,1,144.87,150.33Zm194,6.53a6.3,6.3,0,0,1-6.68-6.53c0-4,2.84-6.53,6.68-6.53s6.68,2.51,6.68,6.53S342.78,156.86,338.89,156.86ZM182.06,143.4c3.44,0,5.68,1.61,6.38,4.57H175.68c.75-3,3-4.57,6.38-4.57Zm79.31,0c3.44,0,5.69,1.61,6.38,4.57H255c.75-3,3-4.57,6.38-4.57ZM229,163.29h10.67l6.93-25.93h-7.23l-5.08,21-5.09-21h-7.13L229,163.29h0Zm-17.1,0h6.63V137.37h-6.63Zm-28.84.48a19.19,19.19,0,0,0,10.37-3l-2.54-5.73a16.7,16.7,0,0,1-7.73,2c-3.49,0-5.93-1.36-7-3.87h18.64a14.51,14.51,0,0,0,.3-3.06c0-8-5.53-13.41-13-13.41s-13,5.43-13,13.52,5.43,13.52,13.86,13.52h0ZM352,150.33c0-8-5.58-13.52-13.11-13.52s-13.11,5.48-13.11,13.52,5.58,13.52,13.11,13.52S352,158.37,352,150.33Zm-89.73,13.52a19.2,19.2,0,0,0,10.37-3l-2.54-5.73a16.7,16.7,0,0,1-7.73,2c-3.49,0-5.93-1.35-7-3.87H274a14.52,14.52,0,0,0,.3-3.06c0-8-5.53-13.41-13-13.41s-13,5.42-13,13.52,5.43,13.52,13.86,13.52h0Zm47.26,0c7.53,0,13.11-5.48,13.11-13.52s-5.58-13.52-13.11-13.52-13.11,5.48-13.11,13.52,5.58,13.52,13.11,13.52Zm-110.17-.55H206V125.86h-6.63v37.43h0Zm15.9-29.49a4.22,4.22,0,1,0-4.19-4.22,4.1,4.1,0,0,0,4.19,4.22h0Zm-113.9-31.53-3.8,35.92L91.09,107.9l-20.3,4.29,6.47,30.29L48,148.67l5.17,24.19,51.46,10.88,11.77-26.29,5.6-53-20.64-2.16h0ZM85.1,154.38c-1.06,1-2.46.88-4,.38s-2.15-2.28-1.58-4.44c.42-1.6,2.39-1.85,3.38-1.86a2.54,2.54,0,0,1,1.09.22c.7.31,1.88,1,2.12,2a3.55,3.55,0,0,1-1,3.68h0ZM100,156c-.77,1.33-2.79,1.51-4.79.54-1.34-.65-1.33-2.32-1.18-3.33a3.14,3.14,0,0,1,.65-1.51,3.27,3.27,0,0,1,2.2-1.42,3.87,3.87,0,0,1,3.53,1.85c.73,1.21.37,2.54-.41,3.88Z"></path>
</svg>
